<svg xmlns="http://www.w3.org/2000/svg" width="72" height="72">
<style>
  path {
    fill: #000;
  }
  @media (prefers-color-scheme: dark){
    path {
      fill: #fff;
    }
  }
  </style>
  <path fill-rule="evenodd" d="M31.4 16.7l2.5-4.4c1.2 2.8.7 3.6-2.5 4.4zM29 18.5a21.3 21.3 0 0112 .5 4.5 4.5 0 013.2 4.1c.1 1.4-.3 2-1.7 2.2l-5.9.7a64.2 64.2 0 00-17.2 4.5 6.4 6.4 0 01.8-6.4c2.1-3.3 5.3-4.8 8.8-5.6zM12.9 18.8l8.2.7c-1.5 1.5-5 1.2-8.2-.7zM64.8 46.9c.8 1.3 1.6 2.5 2.5 4.2l-1.3-.2c-.1 0-.1-.2-.2-.2-3.5-3.9-2.5-3.2-7-1.6-1.9.6-3.7 1.4-5.6 2.1l-.4.4c1.6 1.3 3.1 2.7 4.7 3.8a2.8 2.8 0 002.2 0c1.6-.4 3.1-1 4.5-1.5l1.2-.3c0 .1.1.3.1.4l-6.4 2.8a13.4 13.4 0 01.7 1.8l-.2.2c-2.7-.6-2.7-.6-4.1 2l-1.3 1.7-.5-.4 1.7-3.3a1.6 1.6 0 00-.1-2.4l-.3-.3-4.4-3.4c-1 1.9-2 3.7-3.1 5.5s0 1.5.7 2l2.9 1.8c0 .1-.1.2-.1.3a5.3 5.3 0 01-1.5-.5c-2.9-1.5-2.9-1.5-5.1.7l-.4.2c.1-.8.1-1.6.2-2.5l-6.6 1.3c0-.1-.1-.3-.1-.4a53 53 0 006.7-2.3c2.3-1.1 2.8-3.8 4.4-6.2l-3.1.5-5.8.9a3 3 0 00-2.6 1.8l-1.5 3.6c-.1.3-.4.4-.6.5a1.9 1.9 0 01-.2-.7c.3-1.5.7-2.9 1-4.6l-2-.2a101.2 101.2 0 0033.9-9.6zM11.8 33.6L8.3 36l-.8.2a.8.8 0 00-.2-.4l8-6.6.5.4a8.2 8.2 0 01-1.2 2 28.3 28.3 0 01-2.8 2zM21.4 14.2l6.2 2.5c-2.4 1.1-3.4.8-6.2-2.5zM20.9 44.3a2.2 2.2 0 002.3 1.8 4.9 4.9 0 001.6-.5l4.4-1.6 1.2-.2c-.9 2.5-1.6 4.8-2.4 7.3-7.5-2.5-14.4-5.8-18.8-12.8 17-10.3 35.5-11.5 54.4-10.2a.4.4 0 00.1.3l-17.6 2.2-13.8 1.7-1.7.2c-1.7-.1-3 .2-3.8 2s-1.6 1.1-2.3 1.7a1.6 1.6 0 00-.6.8l.9.2 6.5-.8a13.6 13.6 0 01-.7 3.5 3.5 3.5 0 01-2 1.4c-2.1.5-4.2.7-6.3 1.1a1.5 1.5 0 00-1.4 1.7zM8 26.9l9-2.9c-1.3 2.2-5 3.4-9 2.9z"/>
  <path fill-rule="evenodd" d="M35.9 50.7l-4.9.7 2.2-6.3a3.5 3.5 0 013.4-2.7l23.3-2.6 1.3-.2a1.9 1.9 0 00.9-.5c-.2-.3-.5-.7-.8-.7a29.7 29.7 0 00-4.3-.8 75.9 75.9 0 00-22.3 1.8c-.7-2.7-.1-3.9 2.5-4.4L56 31.9a3.1 3.1 0 012.1.4l6.4 4.9a5.1 5.1 0 01.9 1.3c1.4 2.4 1.2 2.7-1.2 4.1-8.8 5.1-18.4 7.1-28.3 8.1zM47.5 22.7l6 1.5v.3h-6zM45.6 19.2l8.3-1.5c-2.2 2-6.2 2.8-8.3 1.5zM39.4 16.9l6.5-3.6a5.6 5.6 0 01-6.5 3.6z"/>
</svg>
