<svg xmlns="http://www.w3.org/2000/svg" viewBox="0 0 72 72">
  <defs>
    <style>
      .a {
        stroke: #231f20;
        stroke-miterlimit: 10;
        stroke-width: 0.9px;
      }
    </style>
  </defs>
  <title>newlogo-blackblack</title>
  <g>
    <path class="a" d="M31.4,16.7l2.5-4.4C35.1,15.1,34.6,15.9,31.4,16.7Z"/>
    <path class="a" d="M29,18.5A21.3,21.3,0,0,1,41,19a4.5,4.5,0,0,1,3.2,4.1c.1,1.4-.3,2-1.7,2.2l-5.9.7a64.2,64.2,0,0,0-17.2,4.5,6.4,6.4,0,0,1,.8-6.4C22.3,20.8,25.5,19.3,29,18.5Z"/>
    <path class="a" d="M12.9,18.8l8.2.7C19.6,21,16.1,20.7,12.9,18.8Z"/>
    <path class="a" d="M64.8,46.9c.8,1.3,1.6,2.5,2.5,4.2L66,50.9c-.1,0-.1-.2-.2-.2-3.5-3.9-2.5-3.2-7-1.6-1.9.6-3.7,1.4-5.6,2.1l-.4.4c1.6,1.3,3.1,2.7,4.7,3.8a2.8,2.8,0,0,0,2.2,0c1.6-.4,3.1-1,4.5-1.5l1.2-.3c0,.1.1.3.1.4l-6.4,2.8a13.4,13.4,0,0,1,.7,1.8l-.2.2c-2.7-.6-2.7-.6-4.1,2l-1.3,1.7-.5-.4,1.7-3.3a1.6,1.6,0,0,0-.1-2.4l-.3-.3-4.4-3.4c-1,1.9-2,3.7-3.1,5.5s0,1.5.7,2L51.1,62c0,.1-.1.2-.1.3a5.3,5.3,0,0,1-1.5-.5c-2.9-1.5-2.9-1.5-5.1.7l-.4.2c.1-.8.1-1.6.2-2.5l-6.6,1.3c0-.1-.1-.3-.1-.4a53,53,0,0,0,6.7-2.3c2.3-1.1,2.8-3.8,4.4-6.2l-3.1.5-5.8.9a3,3,0,0,0-2.6,1.8l-1.5,3.6c-.1.3-.4.4-.6.5a1.9,1.9,0,0,1-.2-.7c.3-1.5.7-2.9,1-4.6l-2-.2a101.2,101.2,0,0,0,33.9-9.6Z"/>
    <path class="a" d="M11.8,33.6,8.3,36l-.8.2a.8.8,0,0,0-.2-.4l8-6.6.5.4a8.2,8.2,0,0,1-1.2,2A28.3,28.3,0,0,1,11.8,33.6Z"/>
    <path class="a" d="M21.4,14.2l6.2,2.5C25.2,17.8,24.2,17.5,21.4,14.2Z"/>
    <path class="a" d="M20.9,44.3a2.2,2.2,0,0,0,2.3,1.8,4.9,4.9,0,0,0,1.6-.5L29.2,44l1.2-.2c-.9,2.5-1.6,4.8-2.4,7.3-7.5-2.5-14.4-5.8-18.8-12.8C26.2,28,44.7,26.8,63.6,28.1a.4.4,0,0,0,.1.3L46.1,30.6,32.3,32.3l-1.7.2c-1.7-.1-3,.2-3.8,2s-1.6,1.1-2.3,1.7a1.6,1.6,0,0,0-.6.8l.9.2,6.5-.8a13.6,13.6,0,0,1-.7,3.5,3.5,3.5,0,0,1-2,1.4c-2.1.5-4.2.7-6.3,1.1a1.5,1.5,0,0,0-1.4,1.7Z"/>
    <path class="a" d="M8,26.9,17,24C15.7,26.2,12,27.4,8,26.9Z"/>
    <path class="a" d="M35.9,50.7l-4.9.7,2.2-6.3a3.5,3.5,0,0,1,3.4-2.7l23.3-2.6,1.3-.2a1.9,1.9,0,0,0,.9-.5c-.2-.3-.5-.7-.8-.7a29.7,29.7,0,0,0-4.3-.8,75.9,75.9,0,0,0-22.3,1.8c-.7-2.7-.1-3.9,2.5-4.4L56,31.9a3.1,3.1,0,0,1,2.1.4l6.4,4.9a5.1,5.1,0,0,1,.9,1.3c1.4,2.4,1.2,2.7-1.2,4.1C55.4,47.7,45.8,49.7,35.9,50.7Z"/>
    <path class="a" d="M47.5,22.7l6,1.5v.3h-6Z"/>
    <path class="a" d="M45.6,19.2l8.3-1.5C51.7,19.7,47.7,20.5,45.6,19.2Z"/>
    <path class="a" d="M39.4,16.9l6.5-3.6A5.6,5.6,0,0,1,39.4,16.9Z"/>
  </g>
</svg>
